<svg width="35" height="35" viewBox="0 0 35 35" fill="none" xmlns="http://www.w3.org/2000/svg">
<path d="M22.6917 15.7646L19.2646 20.1688L16.9896 17.4271C16.6979 17.0625 16.1438 17.0771 15.8521 17.4417L13.3146 20.6938C12.9354 21.175 13.2854 21.875 13.8833 21.875H26.9792C27.5771 21.875 27.9271 21.1896 27.5625 20.7083L23.8438 15.7646C23.5667 15.3854 22.9833 15.3854 22.6917 15.7646ZM2.91668 7.29168C2.11459 7.29168 1.45834 7.94793 1.45834 8.75001V30.625C1.45834 32.2292 2.77084 33.5417 4.37501 33.5417H26.25C27.0521 33.5417 27.7083 32.8854 27.7083 32.0833C27.7083 31.2813 27.0521 30.625 26.25 30.625H5.83334C5.03126 30.625 4.37501 29.9688 4.37501 29.1667V8.75001C4.37501 7.94793 3.71876 7.29168 2.91668 7.29168ZM30.625 1.45834H10.2083C8.60418 1.45834 7.29168 2.77084 7.29168 4.37501V24.7917C7.29168 26.3958 8.60418 27.7083 10.2083 27.7083H30.625C32.2292 27.7083 33.5417 26.3958 33.5417 24.7917V4.37501C33.5417 2.77084 32.2292 1.45834 30.625 1.45834ZM29.1667 24.7917H11.6667C10.8646 24.7917 10.2083 24.1354 10.2083 23.3333V5.83334C10.2083 5.03126 10.8646 4.37501 11.6667 4.37501H29.1667C29.9688 4.37501 30.625 5.03126 30.625 5.83334V23.3333C30.625 24.1354 29.9688 24.7917 29.1667 24.7917Z" fill="white"/>
</svg>
