<svg width="30" height="30" viewBox="0 0 30 30" fill="none" xmlns="http://www.w3.org/2000/svg">
<path d="M13.75 8.75H16.25V11.25H13.75V8.75ZM15 21.25C15.6875 21.25 16.25 20.6875 16.25 20V15C16.25 14.3125 15.6875 13.75 15 13.75C14.3125 13.75 13.75 14.3125 13.75 15V20C13.75 20.6875 14.3125 21.25 15 21.25ZM15 2.5C8.1 2.5 2.5 8.1 2.5 15C2.5 21.9 8.1 27.5 15 27.5C21.9 27.5 27.5 21.9 27.5 15C27.5 8.1 21.9 2.5 15 2.5ZM15 25C9.4875 25 5 20.5125 5 15C5 9.4875 9.4875 5 15 5C20.5125 5 25 9.4875 25 15C25 20.5125 20.5125 25 15 25Z" fill="white"/>
</svg>
