<svg width="35" height="35" viewBox="0 0 35 35" fill="none" xmlns="http://www.w3.org/2000/svg">
<path d="M17.5 11.6667C19.1042 11.6667 20.4167 10.3542 20.4167 8.75001C20.4167 7.14584 19.1042 5.83334 17.5 5.83334C15.8958 5.83334 14.5833 7.14584 14.5833 8.75001C14.5833 10.3542 15.8958 11.6667 17.5 11.6667ZM17.5 14.5833C15.8958 14.5833 14.5833 15.8958 14.5833 17.5C14.5833 19.1042 15.8958 20.4167 17.5 20.4167C19.1042 20.4167 20.4167 19.1042 20.4167 17.5C20.4167 15.8958 19.1042 14.5833 17.5 14.5833ZM17.5 23.3333C15.8958 23.3333 14.5833 24.6458 14.5833 26.25C14.5833 27.8542 15.8958 29.1667 17.5 29.1667C19.1042 29.1667 20.4167 27.8542 20.4167 26.25C20.4167 24.6458 19.1042 23.3333 17.5 23.3333Z" fill="white"/>
</svg>
