<svg width="74" height="74" viewBox="0 0 74 74" fill="none" xmlns="http://www.w3.org/2000/svg">
<circle cx="37" cy="37" r="36" stroke="white" stroke-width="2"/>
<circle cx="37" cy="37" r="30.5128" fill="white"/>
<circle cx="37" cy="37" r="32.5128" stroke="black" stroke-opacity="0.25" stroke-width="4"/>
<g clip-path="url(#clip0_5_3)">
<path d="M41.4498 39.5427H40.4454L40.0894 39.1995C41.6151 37.4195 42.4033 34.9912 41.971 32.4104C41.3735 28.876 38.4239 26.0535 34.8641 25.6212C29.4862 24.9601 24.9601 29.4862 25.6212 34.8641C26.0535 38.4239 28.876 41.3735 32.4104 41.971C34.9912 42.4033 37.4195 41.6151 39.1995 40.0894L39.5427 40.4454V41.4498L44.946 46.8531C45.4673 47.3743 46.3191 47.3743 46.8404 46.8531C47.3616 46.3318 47.3616 45.48 46.8404 44.9588L41.4498 39.5427ZM33.8216 39.5427C30.6559 39.5427 28.1004 36.9873 28.1004 33.8216C28.1004 30.6559 30.6559 28.1004 33.8216 28.1004C36.9873 28.1004 39.5427 30.6559 39.5427 33.8216C39.5427 36.9873 36.9873 39.5427 33.8216 39.5427Z" fill="#050505"/>
</g>
<defs>
<clipPath id="clip0_5_3">
<rect width="30.5128" height="30.5128" fill="white" transform="translate(21.7436 21.7436)"/>
</clipPath>
</defs>
</svg>
